<svg width="24" height="25" viewBox="0 0 24 25" fill="none" xmlns="http://www.w3.org/2000/svg">
<g id="icn/delete/24">
<g id="Group 4280">
<g id="Group 4246">
<path id="shape" d="M3.65234 6.24111H2.75234V8.04111H3.65234V6.24111ZM20.348 8.04111H21.248V6.24111H20.348V8.04111ZM6.6393 7.14111C6.6393 6.64406 6.23636 6.24111 5.7393 6.24111C5.24224 6.24111 4.8393 6.64406 4.8393 7.14111H6.6393ZM19.161 7.14111C19.161 6.64406 18.7581 6.24111 18.261 6.24111C17.764 6.24111 17.361 6.64406 17.361 7.14111H19.161ZM16.1741 20.2411H7.82626V22.0411H16.1741V20.2411ZM7.82626 20.2411C7.13424 20.2411 6.6393 19.7129 6.6393 19.1411H4.8393C4.8393 20.7785 6.21309 22.0411 7.82626 22.0411V20.2411ZM17.361 19.1411C17.361 19.7129 16.8661 20.2411 16.1741 20.2411V22.0411C17.7872 22.0411 19.161 20.7785 19.161 19.1411H17.361ZM3.65234 8.04111H20.348V6.24111H3.65234V8.04111ZM6.6393 19.1411V7.14111H4.8393V19.1411H6.6393ZM19.161 19.1411V7.14111H17.361V19.1411H19.161Z" fill="black"/>
<path id="shape_2" d="M9.91406 11.1411V17.1411M14.088 11.1411V17.1411" stroke="black" stroke-width="1.5" stroke-linecap="square" stroke-linejoin="round"/>
</g>
<path id="Vector 76" d="M9 4.28564H15" stroke="black" stroke-width="1.8"/>
</g>
</g>
</svg>
