<svg width="24" height="25" viewBox="0 0 24 25" fill="none" xmlns="http://www.w3.org/2000/svg">
<g id="icn/writing/24">
<g id="Group 4284">
<path id="Rectangle 1358" d="M18.6934 13.3483V21.1345H3.77344V5.56213H11.2334" stroke="black" stroke-width="1.8"/>
<path id="shape" d="M8.86719 16.1809H7.96719V17.0809H8.86719V16.1809ZM8.86719 13.2397L8.23079 12.6033L7.96719 12.8669V13.2397H8.86719ZM18.426 3.68091L19.0624 3.04451L18.426 2.40812L17.7896 3.04451L18.426 3.68091ZM21.3672 6.62208L22.0036 7.25848L22.64 6.62208L22.0036 5.98569L21.3672 6.62208ZM11.8084 16.1809V17.0809H12.1812L12.4448 16.8173L11.8084 16.1809ZM9.76719 16.1809V13.2397H7.96719V16.1809H9.76719ZM17.7896 4.3173L20.7308 7.25848L22.0036 5.98569L19.0624 3.04451L17.7896 4.3173ZM11.8084 15.2809H8.86719V17.0809H11.8084V15.2809ZM20.7308 5.98569L18.5249 8.19157L19.7977 9.46436L22.0036 7.25848L20.7308 5.98569ZM18.5249 8.19157L11.172 15.5445L12.4448 16.8173L19.7977 9.46436L18.5249 8.19157ZM9.50358 13.8761L16.8565 6.52319L15.5837 5.25039L8.23079 12.6033L9.50358 13.8761ZM16.8565 6.52319L19.0624 4.3173L17.7896 3.04451L15.5837 5.25039L16.8565 6.52319ZM19.7977 8.19157L16.8565 5.25039L15.5837 6.52319L18.5249 9.46436L19.7977 8.19157Z" fill="black"/>
</g>
</g>
</svg>
