<svg width="24" height="25" viewBox="0 0 24 25" fill="none" xmlns="http://www.w3.org/2000/svg">
<g id="icn/bell/24">
<path id="Union" fill-rule="evenodd" clip-rule="evenodd" d="M6.47227 10.0347C6.4723 7.09252 8.92519 4.66868 11.9993 4.66868C15.0735 4.66868 17.5264 7.09252 17.5264 10.0347C17.5264 10.0348 17.5264 10.0348 17.5264 10.0348V17.9073H6.47227V10.0348C6.47227 10.0348 6.47227 10.0348 6.47227 10.0347ZM4.67227 10.0347C4.6723 6.05565 7.97438 2.86868 11.9993 2.86868C16.0243 2.86868 19.3264 6.05565 19.3264 10.0347C19.3264 10.0348 19.3264 10.0348 19.3264 10.0348V18.8073V19.7073H18.4264H5.57227H4.67227V18.8073V10.0348C4.67227 10.0348 4.67227 10.0348 4.67227 10.0347Z" fill="black"/>
<path id="Vector 64" d="M3.53711 18.894H20.4639" stroke="black" stroke-width="1.8"/>
<path id="Vector 76" d="M9 21.7134H15" stroke="black" stroke-width="1.8"/>
</g>
</svg>
