<svg width="19" height="19" viewBox="0 0 19 19" fill="none" xmlns="http://www.w3.org/2000/svg">
<g id="icn/share/iOS/18">
<path id="shape (Stroke)" fill-rule="evenodd" clip-rule="evenodd" d="M13.1829 4.40283C12.4814 4.40283 11.9128 4.97151 11.9128 5.67301C11.9128 6.37452 12.4814 6.9432 13.1829 6.9432C13.8844 6.9432 14.4531 6.37452 14.4531 5.67301C14.4531 4.97151 13.8844 4.40283 13.1829 4.40283ZM10.4128 5.67301C10.4128 4.14308 11.653 2.90283 13.1829 2.90283C14.7129 2.90283 15.9531 4.14308 15.9531 5.67301C15.9531 7.20294 14.7129 8.4432 13.1829 8.4432C12.3706 8.4432 11.6399 8.0935 11.1331 7.53643L7.82328 9.19135C7.85552 9.36042 7.8724 9.53493 7.8724 9.71338C7.8724 9.89183 7.85552 10.0663 7.82328 10.2354L11.1331 11.8903C11.6399 11.3333 12.3706 10.9836 13.1829 10.9836C14.7129 10.9836 15.9531 12.2238 15.9531 13.7537C15.9531 15.2837 14.7129 16.5239 13.1829 16.5239C11.653 16.5239 10.4128 15.2837 10.4128 13.7537C10.4128 13.5753 10.4296 13.4008 10.4619 13.2317L7.152 11.5768C6.64529 12.1339 5.91459 12.4836 5.10221 12.4836C3.57228 12.4836 2.33203 11.2433 2.33203 9.71338C2.33203 8.18345 3.57228 6.9432 5.10221 6.9432C5.91459 6.9432 6.64529 7.29288 7.152 7.84995L10.4619 6.19501C10.4296 6.02596 10.4128 5.85146 10.4128 5.67301ZM5.10221 8.4432C4.40071 8.4432 3.83203 9.01188 3.83203 9.71338C3.83203 10.4149 4.40071 10.9836 5.10221 10.9836C5.80372 10.9836 6.3724 10.4149 6.3724 9.71338C6.3724 9.01188 5.80372 8.4432 5.10221 8.4432ZM13.1829 12.4836C12.4814 12.4836 11.9128 13.0522 11.9128 13.7537C11.9128 14.4552 12.4814 15.0239 13.1829 15.0239C13.8844 15.0239 14.4531 14.4552 14.4531 13.7537C14.4531 13.0522 13.8844 12.4836 13.1829 12.4836Z" fill="#342F2D"/>
</g>
</svg>
