<svg width="24" height="25" viewBox="0 0 24 25" fill="none" xmlns="http://www.w3.org/2000/svg">
<g id="icn/NV/tripbook/default">
<g id="Group 4235">
<g id="Group 4276">
<path id="Subtract" fill-rule="evenodd" clip-rule="evenodd" d="M5.07812 5.93604L7.3418 3.67236H18.9226V20.2175H7.41695C6.12525 20.2175 5.07812 19.1703 5.07812 17.8786V5.93604ZM15.2984 6.33903C14.928 6.06522 14.3971 6.14483 14.1232 6.51522L12.9005 8.16922L10.3829 7.6142L10.2075 7.57164L9.41144 8.6485L11.605 9.92175L11.298 10.337L10.4347 10.2975L10.2893 10.288L9.58171 11.2452L9.89079 11.3866L11.136 11.9697L12.0586 12.9891L12.2844 13.2431L12.992 12.2859L12.9403 12.1498L12.6493 11.336L12.9563 10.9207L14.8169 12.6444L15.6129 11.5676L15.5208 11.4124L14.2519 9.1682L15.4746 7.5142C15.7484 7.14381 15.6688 6.61284 15.2984 6.33903Z" fill="#C7BFBD"/>
<path id="Subtract_2" fill-rule="evenodd" clip-rule="evenodd" d="M5.16016 18.4739L7.37091 16.2632H18.9242V20.2617H7.15415C6.12006 20.2617 5.26875 19.4792 5.16016 18.4739Z" fill="#9F9693"/>
<g id="Group 4235_2">
<path id="Rectangle 1333" d="M8.51367 17.6443H12.1889V22.1142L10.3513 20.7747L8.51367 22.1142V17.6443Z" fill="#C7BFBD"/>
</g>
</g>
</g>
</g>
</svg>
