<svg width="24" height="25" viewBox="0 0 24 25" fill="none" xmlns="http://www.w3.org/2000/svg">
<g id="icn/NV/tripbook/active">
<g id="Group 4235">
<g id="Group 4277">
<path id="Subtract" fill-rule="evenodd" clip-rule="evenodd" d="M5.07617 5.93604L7.33984 3.67236H18.9206V20.2175H7.415C6.1233 20.2175 5.07617 19.1703 5.07617 17.8786V5.93604ZM15.2965 6.33903C14.9261 6.06522 14.3951 6.14483 14.1213 6.51522L12.8986 8.16922L10.3809 7.6142L10.2056 7.57164L9.40949 8.6485L11.603 9.92175L11.296 10.337L10.4327 10.2975L10.2874 10.288L9.57975 11.2452L9.88883 11.3866L11.134 11.9697L12.0566 12.9891L12.2825 13.2431L12.9901 12.2859L12.9384 12.1498L12.6474 11.336L12.9544 10.9207L14.8149 12.6444L15.611 11.5676L15.5189 11.4124L14.2499 9.1682L15.4726 7.5142C15.7465 7.14381 15.6668 6.61284 15.2965 6.33903Z" fill="#FF4E16"/>
<path id="Subtract_2" fill-rule="evenodd" clip-rule="evenodd" d="M5.1582 18.4738L7.36881 16.2632H18.9223V20.2617H7.15221C6.11807 20.2617 5.26673 19.4791 5.1582 18.4738Z" fill="#AD1100"/>
<g id="Group 4235_2">
<path id="Rectangle 1333" d="M8.51172 17.6443H12.187V22.1142L10.3493 20.7747L8.51172 22.1142V17.6443Z" fill="#FF4E16"/>
</g>
</g>
</g>
</g>
</svg>
