<svg width="19" height="19" viewBox="0 0 19 19" fill="none" xmlns="http://www.w3.org/2000/svg">
<g id="icn/like/18">
<path id="shape (Stroke)" fill-rule="evenodd" clip-rule="evenodd" d="M5.97375 4.85352C4.63392 4.85352 3.49219 5.99812 3.49219 7.48015C3.49219 8.18715 3.76128 8.85892 4.23053 9.34924L9.14035 14.4795L14.0502 9.34924C14.5194 8.85892 14.7885 8.18715 14.7885 7.48015C14.7885 5.99812 13.6468 4.85352 12.307 4.85352C11.6597 4.85352 11.0319 5.12187 10.5637 5.61107L9.14035 7.09836L7.71696 5.61107C7.24879 5.12188 6.62101 4.85352 5.97375 4.85352ZM1.99219 7.48015C1.99219 5.23246 3.74409 3.35352 5.97375 3.35352C7.04062 3.35352 8.05676 3.79666 8.80065 4.57395L9.14035 4.9289L9.48005 4.57395C10.2239 3.79666 11.2401 3.35352 12.307 3.35352C14.5366 3.35352 16.2885 5.23246 16.2885 7.48015C16.2885 8.56424 15.8767 9.61019 15.1339 10.3864L9.14035 16.6489L3.14685 10.3864C2.40403 9.61019 1.99219 8.56424 1.99219 7.48015Z" fill="#342F2D"/>
</g>
</svg>
