<svg width="24" height="25" viewBox="0 0 24 25" fill="none" xmlns="http://www.w3.org/2000/svg">
<g id="icn/edit/24">
<path id="shape" d="M3.5 21.2134H2.6V22.1134H3.5V21.2134ZM3.5 17.2134L2.8636 16.577L2.6 16.8406V17.2134H3.5ZM16.5 4.21338L17.1364 3.57698L16.5 2.94059L15.8636 3.57698L16.5 4.21338ZM20.5 8.21338L21.1364 8.84977L21.7728 8.21338L21.1364 7.57698L20.5 8.21338ZM7.5 21.2134V22.1134H7.87279L8.1364 21.8498L7.5 21.2134ZM4.4 21.2134V17.2134H2.6V21.2134H4.4ZM15.8636 4.84978L19.8636 8.84977L21.1364 7.57698L17.1364 3.57698L15.8636 4.84978ZM7.5 20.3134H3.5V22.1134H7.5V20.3134ZM19.8636 7.57698L16.8636 10.577L18.1364 11.8498L21.1364 8.84977L19.8636 7.57698ZM16.8636 10.577L6.8636 20.577L8.1364 21.8498L18.1364 11.8498L16.8636 10.577ZM4.1364 17.8498L14.1364 7.84978L12.8636 6.57698L2.8636 16.577L4.1364 17.8498ZM14.1364 7.84978L17.1364 4.84978L15.8636 3.57698L12.8636 6.57698L14.1364 7.84978ZM18.1364 10.577L14.1364 6.57698L12.8636 7.84978L16.8636 11.8498L18.1364 10.577Z" fill="black"/>
</g>
</svg>
