<svg width="24" height="24" viewBox="0 0 24 24" fill="none" xmlns="http://www.w3.org/2000/svg">
<g id="icn/keyboard/24" clip-path="url(#clip0_1312_5607)">
<path id="Rectangle 1372" d="M18.1005 17.8995L12 20.9187L5.89949 17.8995" stroke="black" stroke-width="1.8"/>
<g id="Group 4293">
<rect id="Rectangle 1366" x="3.25352" y="2.6146" width="17.493" height="11.3509" stroke="black" stroke-width="1.8"/>
<g id="Group 4292">
<rect id="Rectangle 1367" x="6.04688" y="4.94324" width="1.5" height="1.5" fill="black"/>
<rect id="Rectangle 1368" x="8.64844" y="4.94324" width="1.5" height="1.5" fill="black"/>
<rect id="Rectangle 1369" x="11.25" y="4.94324" width="1.5" height="1.5" fill="black"/>
<rect id="Rectangle 1370" x="13.8516" y="4.94324" width="1.5" height="1.5" fill="black"/>
<rect id="Rectangle 1371" x="16.4531" y="4.94324" width="1.5" height="1.5" fill="black"/>
<rect id="Rectangle 1367_2" x="6.04688" y="7.53979" width="1.5" height="1.5" fill="black"/>
<rect id="Rectangle 1368_2" x="8.64844" y="7.53979" width="1.5" height="1.5" fill="black"/>
<rect id="Rectangle 1369_2" x="11.25" y="7.53979" width="1.5" height="1.5" fill="black"/>
<rect id="Rectangle 1370_2" x="13.8516" y="7.53979" width="1.5" height="1.5" fill="black"/>
<rect id="Rectangle 1371_2" x="16.4531" y="7.53979" width="1.5" height="1.5" fill="black"/>
<rect id="Rectangle 1367_3" x="6.04688" y="10.1368" width="1.5" height="1.5" fill="black"/>
<rect id="Rectangle 1368_3" x="8.64844" y="10.1368" width="6.70312" height="1.5" fill="black"/>
<rect id="Rectangle 1371_3" x="16.4531" y="10.1368" width="1.5" height="1.5" fill="black"/>
</g>
</g>
</g>
<defs>
<clipPath id="clip0_1312_5607">
<rect width="24" height="24" fill="white"/>
</clipPath>
</defs>
</svg>
