<svg width="36" height="37" viewBox="0 0 36 37" fill="none" xmlns="http://www.w3.org/2000/svg">
<g id="icn/camera/36">
<g id="Group 4090">
<g id="Union">
<mask id="path-1-inside-1_173_708" fill="white">
<path fill-rule="evenodd" clip-rule="evenodd" d="M24.6865 7.52979H11.3135V10.9519H4.62695V29.897H31.373V10.9519H24.6865V7.52979Z"/>
</mask>
<path d="M11.3135 7.52979V5.32979H9.11348V7.52979H11.3135ZM24.6865 7.52979H26.8865V5.32979H24.6865V7.52979ZM11.3135 10.9519V13.1519H13.5135V10.9519H11.3135ZM4.62695 10.9519V8.75189H2.42695V10.9519H4.62695ZM4.62695 29.897H2.42695V32.097H4.62695V29.897ZM31.373 29.897V32.097H33.573V29.897H31.373ZM31.373 10.9519H33.573V8.75189H31.373V10.9519ZM24.6865 10.9519H22.4865V13.1519H24.6865V10.9519ZM11.3135 9.72979H24.6865V5.32979H11.3135V9.72979ZM13.5135 10.9519V7.52979H9.11348V10.9519H13.5135ZM4.62695 13.1519H11.3135V8.75189H4.62695V13.1519ZM6.82695 29.897V10.9519H2.42695V29.897H6.82695ZM31.373 27.697H4.62695V32.097H31.373V27.697ZM29.173 10.9519V29.897H33.573V10.9519H29.173ZM24.6865 13.1519H31.373V8.75189H24.6865V13.1519ZM22.4865 7.52979V10.9519H26.8865V7.52979H22.4865Z" fill="#342F2D" mask="url(#path-1-inside-1_173_708)"/>
</g>
<circle id="Ellipse 78" cx="17.9997" cy="20.2753" r="3.64577" stroke="#342F2D" stroke-width="2.2"/>
</g>
</g>
</svg>
